<?xml version="1.0" encoding="utf-8"?>
<!-- Generator: Adobe Illustrator 25.0.0, SVG Export Plug-In . SVG Version: 6.00 Build 0)  -->
<svg version="1.1" id="Layer_1" xmlns="http://www.w3.org/2000/svg" xmlns:xlink="http://www.w3.org/1999/xlink" x="0px" y="0px"
	 viewBox="0 0 24 24" style="enable-background:new 0 0 24 24;" xml:space="preserve">
<style type="text/css">
	.st0{fill-rule:evenodd;clip-rule:evenodd;}
</style>
<g>
	<path class="st0" d="M21.8,0H2.2C1,0,0,1,0,2.2v19.5C0,23,1,24,2.2,24h10.5v-9.8h-2.6v-3.8h2.6V8.6c0.1-2.1,0.6-4,4.2-4.1h3v3.7
		h-2.5c-0.7,0-1.2,0.5-1.2,1.1l0,0v0.1v1.1H20l-0.6,3.8h-3.1V24h5.6c1.2,0,2.2-1,2.2-2.2V2.2C24,1,23,0,21.8,0"/>
</g>
</svg>
