<svg xmlns="http://www.w3.org/2000/svg" fill="#4dd3ff" viewBox="0 0 24 24">
  <path fill-rule="evenodd" d="M19 6.3c0 .7-.6 1.3-1.3 1.3-.7 0-1.3-.6-1.3-1.3 0-.7.6-1.3 1.3-1.3.7 0 1.3.6 1.3 1.3m-7 .2C9 6.5 6.5 9 6.5 12S9 17.5 12 17.5s5.5-2.5 5.5-5.5S15 6.5 12 6.5m0 9.1c-2 0-3.6-1.6-3.6-3.6S10 8.4 12 8.4s3.6 1.6 3.6 3.6-1.6 3.6-3.6 3.6m0-12.4c2.9 0 3.2 0 4.3.1 1 0 1.6.2 2 .4.5.2.9.4 1.2.8s.6.7.8 1.2c.1.4.3.9.4 2 .1 1.1.1 1.5.1 4.3 0 2.9 0 3.2-.1 4.3 0 1-.2 1.6-.4 2-.2.5-.4.9-.8 1.2-.4.4-.7.6-1.2.8-.4.1-.9.3-2 .4-1.1.1-1.5.1-4.3.1-2.9 0-3.2 0-4.3-.1-1 0-1.6-.2-2-.4-.5-.2-.9-.4-1.2-.8-.4-.4-.6-.7-.8-1.2-.1-.4-.3-.9-.4-2-.1-1.1-.1-1.5-.1-4.3 0-2.9 0-3.2.1-4.3 0-1 .2-1.6.4-2 .2-.5.4-.9.8-1.2.4-.4.7-.6 1.2-.8.4-.1.9-.3 2-.4 1.1-.1 1.4-.1 4.3-.1m0-1.9c-2.9 0-3.3 0-4.4.1-1.2 0-1.9.2-2.6.4-.7.3-1.3.7-1.9 1.3-.6.6-1 1.2-1.3 1.9-.2.7-.4 1.4-.5 2.6V12c0 2.9 0 3.3.1 4.4.1 1.1.2 1.9.5 2.6.3.7.6 1.3 1.2 1.9.6.6 1.2 1 1.9 1.2.7.3 1.5.4 2.6.5 1.1.1 1.5.1 4.4.1 2.9 0 3.3 0 4.4-.1 1.1-.1 1.9-.2 2.6-.5.7-.3 1.3-.6 1.9-1.2.6-.6 1-1.2 1.2-1.9.3-.7.4-1.5.5-2.6.1-1.1.1-1.5.1-4.4 0-2.9 0-3.3-.1-4.4-.1-1.1-.2-1.9-.5-2.6-.3-.7-.6-1.3-1.2-1.9-.6-.6-1.2-1-1.9-1.2-.7-.3-1.5-.4-2.6-.5-1.1-.1-1.5-.1-4.4-.1" clip-rule="evenodd"/>
</svg>