<?xml version="1.0" encoding="utf-8"?>
<!-- Generator: Adobe Illustrator 25.0.0, SVG Export Plug-In . SVG Version: 6.00 Build 0)  -->
<svg version="1.1" id="Layer_1" xmlns="http://www.w3.org/2000/svg" xmlns:xlink="http://www.w3.org/1999/xlink" x="0px" y="0px"
	 viewBox="0 0 24 24" style="enable-background:new 0 0 24 24;" xml:space="preserve">
<style type="text/css">
	.st0{fill-rule:evenodd;clip-rule:evenodd;}
</style>
<path class="st0" d="M19,6.3c0,0.7-0.6,1.3-1.3,1.3c-0.7,0-1.3-0.6-1.3-1.3C16.4,5.6,17,5,17.7,5C18.4,5,19,5.6,19,6.3 M12,6.5
	C9,6.5,6.5,9,6.5,12c0,3,2.5,5.5,5.5,5.5c3,0,5.5-2.5,5.5-5.5C17.5,9,15,6.5,12,6.5 M12,15.6c-2,0-3.6-1.6-3.6-3.6
	c0-2,1.6-3.6,3.6-3.6c2,0,3.6,1.6,3.6,3.6C15.6,14,14,15.6,12,15.6 M12,3.2c2.9,0,3.2,0,4.3,0.1c1,0,1.6,0.2,2,0.4
	c0.5,0.2,0.9,0.4,1.2,0.8s0.6,0.7,0.8,1.2c0.1,0.4,0.3,0.9,0.4,2c0.1,1.1,0.1,1.5,0.1,4.3c0,2.9,0,3.2-0.1,4.3c0,1-0.2,1.6-0.4,2
	c-0.2,0.5-0.4,0.9-0.8,1.2c-0.4,0.4-0.7,0.6-1.2,0.8c-0.4,0.1-0.9,0.3-2,0.4c-1.1,0.1-1.5,0.1-4.3,0.1c-2.9,0-3.2,0-4.3-0.1
	c-1,0-1.6-0.2-2-0.4c-0.5-0.2-0.9-0.4-1.2-0.8c-0.4-0.4-0.6-0.7-0.8-1.2c-0.1-0.4-0.3-0.9-0.4-2c-0.1-1.1-0.1-1.5-0.1-4.3
	c0-2.9,0-3.2,0.1-4.3c0-1,0.2-1.6,0.4-2c0.2-0.5,0.4-0.9,0.8-1.2c0.4-0.4,0.7-0.6,1.2-0.8c0.4-0.1,0.9-0.3,2-0.4
	C8.8,3.2,9.1,3.2,12,3.2 M12,1.3c-2.9,0-3.3,0-4.4,0.1C6.4,1.4,5.7,1.6,5,1.8C4.3,2.1,3.7,2.5,3.1,3.1C2.5,3.7,2.1,4.3,1.8,5
	C1.6,5.7,1.4,6.4,1.3,7.6C1.3,8.7,1.3,9.1,1.3,12c0,2.9,0,3.3,0.1,4.4c0.1,1.1,0.2,1.9,0.5,2.6c0.3,0.7,0.6,1.3,1.2,1.9
	c0.6,0.6,1.2,1,1.9,1.2c0.7,0.3,1.5,0.4,2.6,0.5c1.1,0.1,1.5,0.1,4.4,0.1c2.9,0,3.3,0,4.4-0.1c1.1-0.1,1.9-0.2,2.6-0.5
	c0.7-0.3,1.3-0.6,1.9-1.2c0.6-0.6,1-1.2,1.2-1.9c0.3-0.7,0.4-1.5,0.5-2.6c0.1-1.1,0.1-1.5,0.1-4.4c0-2.9,0-3.3-0.1-4.4
	c-0.1-1.1-0.2-1.9-0.5-2.6c-0.3-0.7-0.6-1.3-1.2-1.9c-0.6-0.6-1.2-1-1.9-1.2c-0.7-0.3-1.5-0.4-2.6-0.5C15.3,1.3,14.9,1.3,12,1.3"/>
</svg>
