<?xml version="1.0" encoding="utf-8"?>
<!-- Generator: Adobe Illustrator 25.0.0, SVG Export Plug-In . SVG Version: 6.00 Build 0)  -->
<svg version="1.1" id="Layer_1" xmlns="http://www.w3.org/2000/svg" xmlns:xlink="http://www.w3.org/1999/xlink" x="0px" y="0px"
	 viewBox="0 0 24 24" style="enable-background:new 0 0 24 24;" xml:space="preserve">
<style type="text/css">
	.st0{fill-rule:evenodd;clip-rule:evenodd;}
</style>
<g>
	<path class="st0" d="M2.9,1C1.3,1,0,2.2,0,3.6s1.3,2.6,2.9,2.6S5.8,5,5.8,3.6S4.5,1,2.9,1z M17.9,7.7c-2.1,0-3.4,0.8-4.8,2.5v-2
		H8.2V23h4.9v-8c0-1.7,0.9-3.4,2.8-3.4c2,0,3.1,1.7,3.1,3.3V23h5v-8.4C24,8.8,20.1,7.7,17.9,7.7z M0.4,23h4.9V8.2H0.4V23z"/>
</g>
</svg>
