<svg xmlns="http://www.w3.org/2000/svg" fill="#4dd3ff" viewBox="0 0 24 24">
  <path fill-rule="evenodd" d="M22.4 5.7c0-.2-.2-.4-.4-.4-.1 0-.9.3-1.1.4.3-.3.9-1.3.9-1.7 0-.2-.2-.4-.4-.4-.1 0-.1 0-.2.1-.8.4-1.5.7-2.3.9-.8-.8-2-1.3-3.1-1.3-2.5 0-4.5 2-4.5 4.5v.5c-2.3 0-4.6-1-6.5-2.7-.4-.4-.8-.8-1.2-1.3-.1-.1-.2-.1-.3-.1-.1 0-.2.1-.3.2-.4.6-.6 1.5-.6 2.2 0 1 .4 2.1 1 2.9-.2-.1-.5-.3-.7-.3s-.4.2-.4.4c0 1.6.9 3 2.2 3.8h-.3c-.2 0-.3.2-.3.3v.1c.5 1.5 1.7 2.6 3.3 3-1.4.8-2.8 1.2-4.3 1.2-.3 0-.7-.1-1-.1-.2 0-.4.2-.4.4 0 .1.1.2.2.3.3.2.6.4 1 .6 1.7.9 3.6 1.4 5.6 1.4 4.9 0 9-2.6 11-7 .7-1.6 1.1-3.3 1.1-5.1v-.4c.8-.6 1.5-1.3 2-2.1v-.3z" clip-rule="evenodd"/>
</svg>