<?xml version="1.0" encoding="utf-8"?>
<!-- Generator: Adobe Illustrator 25.0.0, SVG Export Plug-In . SVG Version: 6.00 Build 0)  -->
<svg version="1.1" id="Layer_1" xmlns="http://www.w3.org/2000/svg" xmlns:xlink="http://www.w3.org/1999/xlink" x="0px" y="0px"
	 viewBox="0 0 24 24" style="enable-background:new 0 0 24 24;" xml:space="preserve">
<style type="text/css">
	.st0{fill-rule:evenodd;clip-rule:evenodd;}
</style>
<g>
	<path class="st0" d="M22.4,5.7c0-0.2-0.2-0.4-0.4-0.4c-0.1,0-0.9,0.3-1.1,0.4c0.3-0.3,0.9-1.3,0.9-1.7c0-0.2-0.2-0.4-0.4-0.4
		c-0.1,0-0.1,0-0.2,0.1c-0.8,0.4-1.5,0.7-2.3,0.9c-0.8-0.8-2-1.3-3.1-1.3c-2.5,0-4.5,2-4.5,4.5c0,0.2,0,0.4,0,0.5
		c-2.3,0-4.6-1-6.5-2.7C4.4,5.2,4,4.8,3.6,4.3C3.5,4.2,3.4,4.2,3.3,4.2C3.2,4.2,3.1,4.3,3,4.4C2.6,5,2.4,5.9,2.4,6.6
		c0,1,0.4,2.1,1,2.9C3.2,9.4,2.9,9.2,2.7,9.2S2.3,9.4,2.3,9.6c0,1.6,0.9,3,2.2,3.8c-0.1,0-0.2,0-0.3,0c-0.2,0-0.3,0.2-0.3,0.3v0.1
		c0.5,1.5,1.7,2.6,3.3,3C5.8,17.6,4.4,18,2.9,18c-0.3,0-0.7-0.1-1-0.1c-0.2,0-0.4,0.2-0.4,0.4c0,0.1,0.1,0.2,0.2,0.3
		c0.3,0.2,0.6,0.4,1,0.6c1.7,0.9,3.6,1.4,5.6,1.4c4.9,0,9-2.6,11-7c0.7-1.6,1.1-3.3,1.1-5.1V8.1c0.8-0.6,1.5-1.3,2-2.1
		C22.4,5.9,22.4,5.8,22.4,5.7z"/>
</g>
</svg>
