<svg fill="white" xmlns="http://www.w3.org/2000/svg" x="0" y="0" version="1.1" viewBox="0 0 434.1 234.5" xml:space="preserve">
  <path d="M200 47.2v40.6c0 4 6.7 4.1 6.7 4.1h7.7c10.1 0 16.9-3.4 16.9-11.6v-1.6c0-4.1-2.3-8-5.5-9.4 2.8-1.3 4.9-5.2 4.9-9.1v-1.6c0-8.6-6.8-11.4-16.3-11.4H200zm8.4 6.2h6.1c5.4 0 7.9 1.2 7.9 5.8s-1.9 7-7.4 7h-6.6V53.4zm0 19h6.6c5.6 0 8.1 2.4 8.1 6.9 0 4.6-2.6 6.4-8.6 6.4h-6.1V72.4z" class="st0"/>
  <path d="M200 47.2v40.6c0 4 6.7 4.1 6.7 4.1h7.7c10.1 0 16.9-3.4 16.9-11.6v-1.6c0-4.1-2.3-8-5.5-9.4 2.8-1.3 4.9-5.2 4.9-9.1v-1.6c0-8.6-6.8-11.4-16.3-11.4H200zm8.4 6.2h6.1c5.4 0 7.9 1.2 7.9 5.8s-1.9 7-7.4 7h-6.6V53.4zm0 19h6.6c5.6 0 8.1 2.4 8.1 6.9 0 4.6-2.6 6.4-8.6 6.4h-6.1V72.4z" class="st0"/>
  <path d="M200 47.2v40.6c0 4 6.7 4.1 6.7 4.1h7.7c10.1 0 16.9-3.4 16.9-11.6v-1.6c0-4.1-2.3-8-5.5-9.4 2.8-1.3 4.9-5.2 4.9-9.1v-1.6c0-8.6-6.8-11.4-16.3-11.4H200zm8.4 6.2h6.1c5.4 0 7.9 1.2 7.9 5.8s-1.9 7-7.4 7h-6.6V53.4zm0 19h6.6c5.6 0 8.1 2.4 8.1 6.9 0 4.6-2.6 6.4-8.6 6.4h-6.1V72.4zM238.4 47.7v5.2c0 .9 1 1.8 2.3 1.8h5.5v-5.1c0-.9-1.3-1.8-2.3-1.8h-5.5v-.1zm-.2 40.6c0 4 8 4.1 8.1 4.1V63.3c-.1-3.9-7.6-4-8.1-4v29z" class="st0"/>
  <path d="M238.4 47.7v5.2c0 .9 1 1.8 2.3 1.8h5.5v-5.1c0-.9-1.3-1.8-2.3-1.8h-5.5v-.1zm-.2 40.6c0 4 8 4.1 8.1 4.1V63.3c-.1-3.9-7.6-4-8.1-4v29z" class="st0"/>
  <path d="M238.4 47.7v5.2c0 .9 1 1.8 2.3 1.8h5.5v-5.1c0-.9-1.3-1.8-2.3-1.8h-5.5v-.1zm-.2 40.6c0 4 8 4.1 8.1 4.1V63.3c-.1-3.9-7.6-4-8.1-4v29zM259.5 60.3c-3.2 0-5.6-1.3-5.6-1.3v29.3c0 4.1 8.1 4.1 8.1 4.1V65.9s2.7-.9 5.9-.9c4.4 0 6 1.9 6 5.2v18.1c0 3.9 8.1 4.1 8.1 4.1V69.3c0-8.1-6.8-10.3-13.2-10.3-3.4 0-6.3 1.3-9.3 1.3" class="st0"/>
  <path d="M259.5 60.3c-3.2 0-5.6-1.3-5.6-1.3v29.3c0 4.1 8.1 4.1 8.1 4.1V65.9s2.7-.9 5.9-.9c4.4 0 6 1.9 6 5.2v18.1c0 3.9 8.1 4.1 8.1 4.1V69.3c0-8.1-6.8-10.3-13.2-10.3-3.4 0-6.3 1.3-9.3 1.3" class="st0"/>
  <path d="M259.5 60.3c-3.2 0-5.6-1.3-5.6-1.3v29.3c0 4.1 8.1 4.1 8.1 4.1V65.9s2.7-.9 5.9-.9c4.4 0 6 1.9 6 5.2v18.1c0 3.9 8.1 4.1 8.1 4.1V69.3c0-8.1-6.8-10.3-13.2-10.3-3.4 0-6.3 1.3-9.3 1.3M295.2 60.3c-3.2 0-5.6-1.3-5.6-1.3v29.3c0 4.1 8.1 4.1 8.1 4.1V65.9s2.8-.9 5.9-.9c4.4 0 6 1.9 6 5.2v18.1c0 3.9 8.1 4.1 8.1 4.1V69.3c0-8.1-6.8-10.3-13.2-10.3-3.4 0-6.3 1.3-9.3 1.3" class="st0"/>
  <path d="M295.2 60.3c-3.2 0-5.6-1.3-5.6-1.3v29.3c0 4.1 8.1 4.1 8.1 4.1V65.9s2.8-.9 5.9-.9c4.4 0 6 1.9 6 5.2v18.1c0 3.9 8.1 4.1 8.1 4.1V69.3c0-8.1-6.8-10.3-13.2-10.3-3.4 0-6.3 1.3-9.3 1.3" class="st0"/>
  <path d="M295.2 60.3c-3.2 0-5.6-1.3-5.6-1.3v29.3c0 4.1 8.1 4.1 8.1 4.1V65.9s2.8-.9 5.9-.9c4.4 0 6 1.9 6 5.2v18.1c0 3.9 8.1 4.1 8.1 4.1V69.3c0-8.1-6.8-10.3-13.2-10.3-3.4 0-6.3 1.3-9.3 1.3M325 66.1c0 1.7.6 3.6 2.4 6.1 0-5.2 4.7-7.1 10-7.1 4.8 0 6.1 2 6.1 4.2-2.6 4.9-19.3 1.9-19.3 13.6 0 7.4 6.3 9.8 12.7 9.8 3.6 0 6.7-1.1 9.8-1.1 1.6 0 3.2.2 4.8 1V69.7c0-6.8-4.9-10.7-14.1-10.7-5.1 0-12.4 1.6-12.4 7.1m7.2 16.6c0-5.6 10-3.7 11.4-7.1v10.2s-2.5 1.1-5.8 1.1c-3.6.1-5.6-1.3-5.6-4.2" class="st0"/>
  <path d="M325 66.1c0 1.7.6 3.6 2.4 6.1 0-5.2 4.7-7.1 10-7.1 4.8 0 6.1 2 6.1 4.2-2.6 4.9-19.3 1.9-19.3 13.6 0 7.4 6.3 9.8 12.7 9.8 3.6 0 6.7-1.1 9.8-1.1 1.6 0 3.2.2 4.8 1V69.7c0-6.8-4.9-10.7-14.1-10.7-5.1 0-12.4 1.6-12.4 7.1m7.2 16.6c0-5.6 10-3.7 11.4-7.1v10.2s-2.5 1.1-5.8 1.1c-3.6.1-5.6-1.3-5.6-4.2" class="st0"/>
  <path d="M325 66.1c0 1.7.6 3.6 2.4 6.1 0-5.2 4.7-7.1 10-7.1 4.8 0 6.1 2 6.1 4.2-2.6 4.9-19.3 1.9-19.3 13.6 0 7.4 6.3 9.8 12.7 9.8 3.6 0 6.7-1.1 9.8-1.1 1.6 0 3.2.2 4.8 1V69.7c0-6.8-4.9-10.7-14.1-10.7-5.1 0-12.4 1.6-12.4 7.1m7.2 16.6c0-5.6 10-3.7 11.4-7.1v10.2s-2.5 1.1-5.8 1.1c-3.6.1-5.6-1.3-5.6-4.2M358 70v11.7c0 6.9 5.6 11 14.4 11 7.1 0 12.4-2.9 12.4-7.4 0-1.5-.6-3.2-1.9-5.1-.1 3.7-4.1 6.4-9.5 6.4-5 0-7.3-1.9-7.3-6.4v-8.6c0-5.2 3-6.5 7.5-6.5 3.9 0 8 2.2 8 7.3 1.7-2.4 2.4-4.5 2.4-6.2 0-5.5-7-7.2-11.9-7.2-8.9 0-14.1 4.2-14.1 11" class="st0"/>
  <path d="M358 70v11.7c0 6.9 5.6 11 14.4 11 7.1 0 12.4-2.9 12.4-7.4 0-1.5-.6-3.2-1.9-5.1-.1 3.7-4.1 6.4-9.5 6.4-5 0-7.3-1.9-7.3-6.4v-8.6c0-5.2 3-6.5 7.5-6.5 3.9 0 8 2.2 8 7.3 1.7-2.4 2.4-4.5 2.4-6.2 0-5.5-7-7.2-11.9-7.2-8.9 0-14.1 4.2-14.1 11" class="st0"/>
  <path d="M358 70v11.7c0 6.9 5.6 11 14.4 11 7.1 0 12.4-2.9 12.4-7.4 0-1.5-.6-3.2-1.9-5.1-.1 3.7-4.1 6.4-9.5 6.4-5 0-7.3-1.9-7.3-6.4v-8.6c0-5.2 3-6.5 7.5-6.5 3.9 0 8 2.2 8 7.3 1.7-2.4 2.4-4.5 2.4-6.2 0-5.5-7-7.2-11.9-7.2-8.9 0-14.1 4.2-14.1 11M390.1 82.6c0 5.2 2.3 9.8 7.4 9.8 1.6 0 3.5-.3 5.2-2.5-4.4 0-4.4-5.9-4.4-9.3V48.2c0-4-7.6-4.1-8.1-4.1v38.5h-.1z" class="st0"/>
  <path d="M390.1 82.6c0 5.2 2.3 9.8 7.4 9.8 1.6 0 3.5-.3 5.2-2.5-4.4 0-4.4-5.9-4.4-9.3V48.2c0-4-7.6-4.1-8.1-4.1v38.5h-.1z" class="st0"/>
  <path d="M390.1 82.6c0 5.2 2.3 9.8 7.4 9.8 1.6 0 3.5-.3 5.2-2.5-4.4 0-4.4-5.9-4.4-9.3V48.2c0-4-7.6-4.1-8.1-4.1v38.5h-.1zM405.4 70v11.7c0 6.9 5.6 11 15.1 11 7.2 0 12.4-3 12.4-7.5 0-1.6-.6-3.3-1.9-5.1-.1 3.7-4.2 6.4-10.4 6.4-4.7 0-6.9-1.9-6.9-5.7v-2.2c1.9.7 3.9 1.1 5.9 1.1 9.9 0 13-4.9 13-10.2 0-6.3-4.2-10.4-13.2-10.4-9.1-.1-14 4-14 10.9m8.2 2.7v-1.8c0-3.8 1.2-6 5.4-6 3.9 0 5.3 1.8 5.3 4.4 0 2.5-1.6 3.9-6.1 3.9-1.8.1-4-.3-4.6-.5" class="st0"/>
  <path d="M405.4 70v11.7c0 6.9 5.6 11 15.1 11 7.2 0 12.4-3 12.4-7.5 0-1.6-.6-3.3-1.9-5.1-.1 3.7-4.2 6.4-10.4 6.4-4.7 0-6.9-1.9-6.9-5.7v-2.2c1.9.7 3.9 1.1 5.9 1.1 9.9 0 13-4.9 13-10.2 0-6.3-4.2-10.4-13.2-10.4-9.1-.1-14 4-14 10.9m8.2 2.7v-1.8c0-3.8 1.2-6 5.4-6 3.9 0 5.3 1.8 5.3 4.4 0 2.5-1.6 3.9-6.1 3.9-1.8.1-4-.3-4.6-.5" class="st0"/>
  <path d="M405.4 70v11.7c0 6.9 5.6 11 15.1 11 7.2 0 12.4-3 12.4-7.5 0-1.6-.6-3.3-1.9-5.1-.1 3.7-4.2 6.4-10.4 6.4-4.7 0-6.9-1.9-6.9-5.7v-2.2c1.9.7 3.9 1.1 5.9 1.1 9.9 0 13-4.9 13-10.2 0-6.3-4.2-10.4-13.2-10.4-9.1-.1-14 4-14 10.9m8.2 2.7v-1.8c0-3.8 1.2-6 5.4-6 3.9 0 5.3 1.8 5.3 4.4 0 2.5-1.6 3.9-6.1 3.9-1.8.1-4-.3-4.6-.5M311.1 106v24.6s-4.2 0-4.2-2.2v-22.3h-5.5c-2.8 0-3.2-2.3-3.2-3.9 0 0 1 .6 3.8.6h14c2.8 0 3.8-.6 3.8-.6 0 1.6-.4 3.9-3.2 3.9l-5.5-.1zM323.4 113.9v16.5s-4.1 0-4.1-2.2v-18c1 .5 1.9.7 2.7.7 1.7 0 3.2-.8 5.4-.8 2.7 0 4.9 1 4.9 3.4 0 1.4-.9 2.6-1.4 3.3 0-2.3-1.9-3.3-4.1-3.3-1.8-.1-3.4.4-3.4.4M345.4 116.3c0-1.7-.8-3-4.1-3-3.5 0-6.1 1.3-6.1 4.3-.9-1.3-1.3-2.4-1.3-3.3 0-3 4-4.2 7.4-4.2 5.3 0 8.2 2.4 8.2 6.4v14c-1-.4-1.9-.5-2.8-.5-1.9 0-3.6.7-5.8.7-3.8 0-7.5-1.5-7.5-5.9-.1-7.4 10.5-5.1 12-8.5m.1 3.5c-.8 2.3-8.1.9-8.1 5 0 1.7 1.3 2.9 4.1 2.9 2.4 0 4.1-.9 4.1-.9v-7h-.1zM354.3 103.1h2.9c.5 0 1.1.5 1.1 1v2.9h-2.9c-.6 0-1.2-.4-1.2-.9v-3h.1zm0 7.1c.2 0 4.1 0 4.1 2.2v18s-4.1 0-4.1-2.2v-18zM375.8 116.7c0-2.2-1.1-3.5-4.2-3.5-2.4 0-4.1.7-4.1.7v16.6s-4.1 0-4.1-2.2v-18.1c.4.2 1.6.7 3 .7 1.9 0 3.6-.8 5.8-.8 3.8 0 7.8 1.3 7.8 6.1v14.3s-4.1-.1-4.1-2.2l-.1-11.6zM384.9 103.1h2.9c.5 0 1.1.5 1.1 1v2.9H386c-.6 0-1.2-.4-1.2-.9v-3h.1zm0 7.1c.2 0 4.1 0 4.1 2.2v18s-4.1 0-4.1-2.2v-18zM406.5 116.7c0-2.2-1.1-3.5-4.2-3.5-2.4 0-4.1.7-4.1.7v16.6s-4.1 0-4.1-2.2v-18.1c.4.2 1.6.7 3 .7 1.9 0 3.6-.8 5.8-.8 3.8 0 7.8 1.3 7.8 6.1v14.3s-4.1-.1-4.1-2.2l-.1-11.6zM431.2 118.1c0 4.1-2.8 6.6-8.1 6.6-3.2 0-5-1.1-5-1.1-.1.6-.3 1.3-.3 1.8 0 1.9 1.6 2.2 4.6 2.2h1.3c3.9 0 8.2.1 8.2 5.3 0 4-2.8 6.7-8.8 6.7-4.8 0-8.2-1.5-8.2-4.2 0-.9.4-1.9 1.2-3 .2 2.9 3 4.1 6.8 4.1s5-1.5 5-3.5c0-2.1-1.7-2.4-4.3-2.4h-1.9c-3.7 0-7.2-.4-7.2-4.4 0-1.5.8-2.7 1.9-4-.9-1-1.4-2.7-1.4-4.2v-2c0-4.4 3.6-6 7.3-6 2.1 0 4 .8 5.8.8.9 0 1.9-.2 3-.7v8h.1zm-4-4.2c-.2-.1-1.8-.8-4.1-.8-3.1 0-4 1-4 3.6v.9c0 2.6.8 4 4 4s4-1.5 4-4v-3.7h.1zM35.3 41.6C25 53.3 18.7 68.6 18.5 85.2H18l.5.1v.9c0 16.7 6.1 31.9 16.1 43.7L0 170l41.8-32.9c11.7 10.2 26.8 16.5 43.5 16.8v.4-.4c.3 0 .7.1 1 .1 16.7 0 31.9-6.1 43.7-16.1l40.3 34.6-33.1-41.7c10.2-11.7 16.5-26.9 16.8-43.6h.4-.4v-.8c0-16.6-6.1-31.9-16.1-43.7l34.6-40.3-41.7 33.1c-11.7-10.3-26.9-16.6-43.7-16.8v-.5l-.1.5h-.8c-16.6 0-31.9 6.1-43.7 16.1L2.3 0l33 41.6zm3.1 4l28.6 36-43.5 3.3c.3-15 5.8-28.7 14.9-39.3m-15 40.3l44.7 5.2-30.3 35.1c-9-10.9-14.4-24.8-14.4-40v-.3M45.6 134l7.3-5.7 28.7-22.7 3.2 43.3c-15-.3-28.6-5.9-39.2-14.9m40.2 14.9l5.3-44.5 29.5 25.4 5.5 4.8c-10.9 9-24.8 14.4-39.9 14.4-.2 0-.3-.1-.4-.1m48.1-22.1l-13.1-16.5-6-7.5-9.5-12 43.4-3.3c-.2 15-5.7 28.6-14.8 39.3m15-40.3l-44.4-5.1 30.1-35c9 10.9 14.3 24.8 14.3 39.9v.2m-22.1-48l-36 28.6-3.3-43.5c14.9.2 28.6 5.8 39.3 14.9m-40.4-15l-5.1 44.4-35-30.1c10.9-9 24.8-14.3 39.9-14.3h.2" class="st0"/>
  <g>
    <path d="M19.5 226.6l-1.2-5.3H7.8l-2.4 5.3H1.1l12.7-26.5H17l6.7 26.5h-4.2zm-4.6-20.5l-5.5 11.7h8.1l-2.6-11.7zM31.8 226.6c-.9 0-1.6-.1-2.3-.4-.6-.3-1.1-.7-1.5-1.1-.4-.5-.6-1-.7-1.7s-.1-1.3-.1-2l2.4-21.3h3.8l-2.4 21c-.1.7 0 1.3.3 1.6.3.4.8.6 1.5.6h1.7l-.4 3.2-2.3.1zM43 226.6c-.9 0-1.6-.1-2.3-.4-.6-.3-1.1-.7-1.5-1.1-.4-.5-.6-1-.7-1.7-.1-.6-.1-1.3-.1-2l2.4-21.3h3.8l-2.4 21c-.1.7 0 1.3.3 1.6.3.4.8.6 1.5.6h1.7l-.4 3.2-2.3.1zM65.1 217.1c-.2 1.6-.5 3-.9 4.2s-1.2 2.3-2.2 3.3c-.7.6-1.5 1.2-2.5 1.6-1 .4-2.1.6-3.4.6s-2.4-.2-3.2-.6c-.9-.4-1.6-1-2.1-1.6-.8-.9-1.3-2-1.4-3.2-.2-1.2-.1-2.6 0-4.2.2-1.6.5-3 .9-4.2s1.2-2.3 2.2-3.2c.7-.6 1.5-1.2 2.5-1.6 1-.4 2.1-.6 3.4-.6s2.4.2 3.3.6c.9.4 1.6 1 2.1 1.6.8.9 1.3 2 1.4 3.2s.1 2.5-.1 4.1zm-3.8 0c.1-1 .2-2 .1-2.9 0-.9-.3-1.7-.8-2.2-.6-.7-1.5-1.1-2.7-1.1-1.1 0-2.1.4-2.9 1.1-.6.6-1.1 1.3-1.3 2.2-.3.9-.4 1.9-.6 2.9-.1 1-.2 2-.1 2.9 0 .9.3 1.7.8 2.2.7.7 1.5 1.1 2.6 1.1s2.1-.4 2.9-1.1c.6-.6 1.1-1.3 1.3-2.2.4-.8.6-1.8.7-2.9zM87.2 226.6H84l-2.9-13.2-5.9 13.2h-3.3l-3.7-18.8h4l2.1 13.3 5.9-13.3h2.9l2.8 13.3 5.2-13.3h4l-7.9 18.8zM96.1 226.6l2.2-18.8h3.8l-2.2 18.8h-3.8zm2.4-22.6l.5-4h4l-.5 4h-4zM117 226.6l1.3-11.5c.2-1.5-.1-2.5-.7-3.2-.7-.7-1.5-1-2.6-1s-2 .3-2.9 1c-.8.7-1.4 1.7-1.5 3.2l-1.3 11.5h-3.8l2.2-18.8h3.7l-.2 1.9c.7-.7 1.5-1.3 2.5-1.6.9-.3 1.8-.5 2.8-.5s1.8.1 2.6.4c.7.3 1.4.7 1.9 1.3.6.7 1 1.5 1.2 2.4s.2 1.9.1 2.9l-1.4 12H117zM140.7 226.5c-.1 1.2-.4 2.2-.9 3.2s-1.1 1.8-1.9 2.5c-.8.7-1.7 1.3-2.7 1.7s-2.2.6-3.4.6c-1.4 0-2.6-.2-3.6-.6-1-.4-1.9-1-2.8-1.9l2.7-2.4c.5.6 1.1 1 1.6 1.3.6.3 1.3.4 2.3.4.8 0 1.5-.1 2.1-.4.6-.3 1.1-.6 1.5-1.1.4-.4.7-1 1-1.5.2-.6.4-1.2.5-1.8l.3-2.4c-.8.8-1.6 1.4-2.4 1.7-.8.3-1.7.5-2.7.5-.9 0-1.8-.1-2.5-.4-.7-.3-1.3-.7-1.8-1.2-.8-.9-1.3-2-1.4-3.3-.1-1.3-.1-2.7.1-4.3.2-1.6.5-3.1.9-4.3.4-1.3 1.1-2.4 2.1-3.3 1.2-1.1 2.8-1.6 4.7-1.6 1 0 1.9.2 2.6.5.7.3 1.4.9 2 1.8l.2-2h3.7l-2.2 18.3zm-2.7-9.7c.1-.7.1-1.5.1-2.2s-.1-1.3-.3-1.9c-.2-.6-.5-1-1-1.3s-1.1-.5-2-.5-1.6.2-2.1.5-1 .8-1.3 1.3c-.3.6-.6 1.2-.7 1.9-.2.7-.3 1.4-.4 2.2-.1.7-.1 1.5-.1 2.2s.1 1.3.3 1.9c.2.6.5 1 1 1.3s1.1.5 2 .5c.8 0 1.5-.2 2.1-.5.5-.3 1-.8 1.3-1.3.3-.6.6-1.2.7-1.9.2-.7.3-1.5.4-2.2zM160.6 226.6c-.9 0-1.6-.1-2.3-.4-.6-.3-1.1-.7-1.5-1.2s-.6-1-.8-1.7c-.1-.6-.2-1.3-.1-2l1.2-10.7h-2.2l.3-2.9h2.2l.6-5.4h3.8l-.6 5.4h3.6l-.3 2.9H161l-1.2 10.5c-.1.7 0 1.2.3 1.6.3.4.8.6 1.5.6h1.6l-.4 3.2-2.2.1zM171.8 218.2c-.2 1.6.1 2.9.8 3.9.7.9 1.8 1.4 3.4 1.4 1.1 0 1.9-.2 2.6-.5.7-.3 1.4-.8 2.2-1.5l2.2 2.3c-.6.5-1.1.9-1.6 1.3s-1.1.7-1.7.9c-.6.2-1.2.4-1.9.6-.7.1-1.4.2-2.2.2-1.2 0-2.3-.2-3.3-.5s-1.8-.9-2.5-1.6c-.7-.8-1.2-1.8-1.5-3s-.4-2.7-.1-4.5c.4-3.1 1.4-5.5 3-7.1 1.6-1.7 3.7-2.5 6.1-2.5 1.3 0 2.4.2 3.3.7.9.4 1.7 1.1 2.3 1.9.6.8 1 1.8 1.2 2.9.2 1.1.3 2.4.1 3.7l-.2 1.6h-12.2v-.2zm8.8-2.6v-1.4c0-.4-.1-.7-.2-1.2-.2-.7-.7-1.3-1.2-1.7-.6-.4-1.3-.7-2.2-.7s-1.7.2-2.4.7c-.7.4-1.2 1-1.6 1.7-.2.4-.4.8-.5 1.2s-.2.8-.3 1.4h8.4zM197.9 226.6l.2-1.7c-.8.7-1.5 1.2-2.3 1.5s-1.7.4-2.9.4-2.2-.1-2.9-.4c-.8-.3-1.4-.7-1.9-1.3-.9-1-1.2-2.4-1-4s.9-2.9 2.1-3.9 2.9-1.5 5.1-1.5h4.9l.2-1.3c.1-1.2-.1-2.1-.6-2.7-.6-.6-1.6-.9-3.1-.9-1 0-1.8.1-2.5.4-.6.3-1.3.8-1.9 1.4l-2.2-2.3c.5-.5 1-1 1.5-1.3s1-.6 1.6-.9c.6-.2 1.2-.4 1.8-.5s1.4-.1 2.2-.1c2.6 0 4.5.5 5.7 1.6s1.6 2.7 1.4 4.8l-1.4 12.6-4 .1zm.9-8.4h-4.3c-2.3 0-3.6.9-3.8 2.7-.1.9.1 1.5.6 2s1.4.7 2.7.7c.7 0 1.3-.1 1.9-.2.6-.1 1.1-.4 1.7-.9.6-.5 1-1.4 1.1-2.8l.1-1.5zM221 224.1c-1 .9-2 1.6-3 2s-2.2.6-3.5.6c-1.1 0-2.1-.2-3-.5-1-.3-1.8-.9-2.5-1.7s-1.2-1.8-1.6-3c-.3-1.2-.4-2.7-.2-4.5s.6-3.2 1.2-4.5c.6-1.2 1.4-2.2 2.2-3 .9-.8 1.8-1.3 2.9-1.7 1-.3 2.1-.5 3.2-.5 1.3 0 2.4.2 3.3.6.9.4 1.8 1.1 2.6 2l-2.9 2.5c-.5-.6-1-1.1-1.5-1.4-.5-.3-1.1-.4-1.9-.4-1.5 0-2.7.6-3.7 1.7-.5.5-.8 1.1-1.1 1.8-.2.7-.4 1.6-.6 2.7-.1 1.1-.2 2-.1 2.8.1.7.3 1.3.7 1.9.7 1.1 1.8 1.7 3.3 1.7.7 0 1.4-.1 2-.4.6-.3 1.2-.7 1.8-1.4l2.4 2.7zM235.5 226.6l1.3-11.5c.2-1.5-.1-2.5-.7-3.2-.7-.7-1.5-1-2.6-1s-2 .3-2.9 1c-.8.7-1.4 1.7-1.5 3.2l-1.3 11.5H224l3-26.5h3.8l-1.1 9.5c.7-.7 1.5-1.3 2.4-1.6.9-.3 1.8-.5 2.8-.5s1.8.1 2.6.4c.7.3 1.4.7 1.9 1.3.6.7 1 1.5 1.2 2.4s.2 1.9.1 2.9l-1.4 12h-3.8v.1zM248.5 218.2c-.2 1.6.1 2.9.8 3.9.7.9 1.8 1.4 3.4 1.4 1.1 0 1.9-.2 2.6-.5s1.4-.8 2.2-1.5l2.2 2.3c-.6.5-1.1.9-1.6 1.3s-1.1.7-1.7.9-1.2.4-1.9.6c-.7.1-1.4.2-2.2.2-1.2 0-2.3-.2-3.3-.5s-1.8-.9-2.5-1.6c-.7-.8-1.2-1.8-1.5-3s-.4-2.7-.1-4.5c.4-3.1 1.4-5.5 3-7.1 1.6-1.7 3.7-2.5 6.1-2.5 1.3 0 2.4.2 3.3.7.9.4 1.7 1.1 2.3 1.9.6.8 1 1.8 1.2 2.9.2 1.1.3 2.4.1 3.7l-.2 1.6h-12.2v-.2zm8.8-2.6v-1.4c0-.4-.1-.7-.2-1.2-.2-.7-.7-1.3-1.2-1.7-.6-.4-1.3-.7-2.2-.7-.9 0-1.7.2-2.4.7-.7.4-1.2 1-1.6 1.7-.2.4-.4.8-.5 1.2s-.2.8-.3 1.4h8.4zM275.7 212.2c-.4-.4-.8-.7-1.1-.9-.4-.2-.9-.3-1.5-.3-1 0-2 .4-2.8 1.1-.8.8-1.3 1.8-1.5 3.1l-1.3 11.4h-3.8l2.2-18.8h3.7l-.2 2c.6-.7 1.3-1.2 2.3-1.6.9-.4 1.9-.6 3-.6.9 0 1.7.1 2.4.4.7.3 1.3.7 1.9 1.4l-3.3 2.8zM294.6 220.8c-.1 1-.4 1.9-.9 2.6-.5.7-1.1 1.4-1.9 1.9s-1.6.9-2.6 1.1c-1 .2-2 .4-3.2.4-1.5 0-2.9-.2-4.2-.5-1.3-.4-2.4-1.1-3.4-2.2l2.8-2.5c.7.8 1.5 1.3 2.4 1.6s1.9.4 2.8.4c1.2 0 2.2-.2 3-.6.8-.4 1.3-1.1 1.4-2 .1-.6-.1-1.2-.4-1.5-.3-.4-1-.6-1.9-.7l-3-.3c-1.8-.2-3.1-.7-4-1.5s-1.2-2.1-1-3.7c.1-.9.4-1.7.8-2.5.5-.7 1-1.3 1.7-1.8s1.5-.9 2.4-1.1c.9-.2 1.8-.4 2.8-.4 1.4 0 2.7.2 3.9.5 1.1.3 2.1.9 2.9 1.6l-2.7 2.4c-.5-.5-1.2-.8-2-1.1-.8-.2-1.6-.3-2.5-.3-1.2 0-2.1.2-2.7.7s-1 1-1 1.7c-.1.6.1 1.1.4 1.5.4.3 1 .6 1.9.7l2.6.2c1.9.2 3.4.7 4.3 1.6 1.2.9 1.5 2.2 1.3 3.8zM313.8 226.6c-.9 0-1.6-.1-2.3-.4-.6-.3-1.1-.7-1.5-1.2s-.6-1-.8-1.7c-.1-.6-.2-1.3-.1-2l1.2-10.7h-2.2l.3-2.9h2.2l.6-5.4h3.8l-.6 5.4h3.6l-.3 2.9h-3.6l-1.2 10.5c-.1.7 0 1.2.3 1.6.3.4.8.6 1.5.6h1.6l-.4 3.2-2.1.1zM336.1 217.1c-.2 1.6-.5 3-.9 4.2s-1.2 2.3-2.2 3.2c-.7.6-1.5 1.2-2.5 1.6-1 .4-2.1.6-3.4.6s-2.4-.2-3.2-.6c-.9-.4-1.6-1-2.1-1.6-.8-.9-1.3-2-1.4-3.2-.2-1.2-.1-2.6 0-4.2.2-1.6.5-3 .9-4.2s1.2-2.3 2.2-3.2c.7-.6 1.5-1.2 2.5-1.6 1-.4 2.1-.6 3.4-.6s2.4.2 3.3.6c.9.4 1.6 1 2.1 1.6.8.9 1.3 2 1.4 3.2.1 1.3.1 2.6-.1 4.2zm-3.8 0c.1-1 .2-2 .1-2.9 0-.9-.3-1.7-.8-2.2-.6-.7-1.5-1.1-2.7-1.1-1.1 0-2.1.4-2.9 1.1-.6.6-1.1 1.3-1.3 2.2-.3.9-.4 1.9-.6 2.9-.1 1-.2 2-.1 2.9 0 .9.3 1.7.8 2.2.7.7 1.5 1.1 2.6 1.1s2.1-.4 2.9-1.1c.6-.6 1.1-1.3 1.3-2.2.4-.8.6-1.8.7-2.9zM353.9 226.6c-.9 0-1.6-.1-2.3-.4-.6-.3-1.1-.7-1.5-1.2s-.6-1-.8-1.7c-.1-.6-.2-1.3-.1-2l1.2-10.7h-2.2l.3-2.9h2.2l.6-5.4h3.8l-.6 5.4h3.6l-.1 2.9h-3.6l-1.2 10.5c-.1.7 0 1.2.3 1.6.3.4.8.6 1.5.6h1.6l-.4 3.2-2.3.1zM364.8 218.2c-.2 1.6.1 2.9.8 3.9.7.9 1.8 1.4 3.4 1.4 1.1 0 1.9-.2 2.6-.5s1.4-.8 2.2-1.5l2.2 2.3c-.6.5-1.1.9-1.6 1.3s-1.1.7-1.7.9-1.2.4-1.9.6c-.7.1-1.4.2-2.2.2-1.2 0-2.3-.2-3.3-.5s-1.8-.9-2.5-1.6c-.7-.8-1.2-1.8-1.5-3s-.4-2.7-.1-4.5c.4-3.1 1.4-5.5 3-7.1 1.6-1.7 3.7-2.5 6.1-2.5 1.3 0 2.4.2 3.3.7.9.4 1.7 1.1 2.3 1.9.6.8 1 1.8 1.2 2.9.2 1.1.3 2.4.1 3.7l-.2 1.6h-12.2v-.2zm8.7-2.6v-1.4c0-.4-.1-.7-.2-1.2-.2-.7-.7-1.3-1.2-1.7-.6-.4-1.3-.7-2.2-.7-.9 0-1.7.2-2.4.7-.7.4-1.2 1-1.6 1.7-.2.4-.4.8-.5 1.2s-.2.8-.3 1.4h8.4zM391.2 226.6l.2-1.7c-.8.7-1.5 1.2-2.3 1.5s-1.7.4-2.9.4-2.2-.1-2.9-.4c-.8-.3-1.4-.7-1.9-1.3-.9-1-1.2-2.4-1-4s.9-2.9 2.1-3.9 2.9-1.5 5.1-1.5h4.9l.2-1.3c.1-1.2-.1-2.1-.6-2.7-.6-.6-1.6-.9-3.1-.9-1 0-1.8.1-2.5.4-.6.3-1.3.8-1.9 1.4l-2.2-2.3c.5-.5 1-1 1.5-1.3s1-.6 1.6-.9c.6-.2 1.2-.4 1.8-.5.6-.1 1.4-.1 2.2-.1 2.6 0 4.5.5 5.7 1.6s1.6 2.7 1.4 4.8l-1.4 12.6-4 .1zm.9-8.4h-4.3c-2.3 0-3.6.9-3.8 2.7-.1.9.1 1.5.6 2s1.4.7 2.7.7c.7 0 1.3-.1 1.9-.2.6-.1 1.1-.4 1.7-.9s1-1.4 1.1-2.8l.1-1.5zM413.9 224.1c-1 .9-2 1.6-3 2s-2.2.6-3.5.6c-1.1 0-2.1-.2-3-.5s-1.8-.9-2.5-1.7-1.2-1.8-1.6-3c-.3-1.2-.4-2.7-.2-4.5.2-1.8.6-3.2 1.2-4.5.6-1.2 1.4-2.2 2.2-3 .9-.8 1.8-1.3 2.9-1.7 1-.3 2.1-.5 3.2-.5 1.3 0 2.4.2 3.3.6.9.4 1.8 1.1 2.6 2l-2.9 2.5c-.5-.6-1-1.1-1.5-1.4-.5-.3-1.1-.4-1.9-.4-1.5 0-2.7.6-3.7 1.7-.5.5-.8 1.1-1.1 1.8-.2.7-.4 1.6-.6 2.7-.1 1.1-.2 2-.1 2.8.1.7.3 1.3.7 1.9.7 1.1 1.8 1.7 3.3 1.7.7 0 1.4-.1 2-.4.6-.3 1.2-.7 1.8-1.4l2.4 2.7zM428.8 226.6l1.3-11.5c.2-1.5-.1-2.5-.7-3.2-.7-.7-1.5-1-2.6-1s-2 .3-2.9 1c-.8.7-1.4 1.7-1.5 3.2l-1.3 11.5h-3.8l3-26.5h3.8l-1.1 9.5c.7-.7 1.5-1.3 2.4-1.6s1.8-.5 2.8-.5 1.8.1 2.6.4c.7.3 1.4.7 1.9 1.3.6.7 1 1.5 1.2 2.4s.2 1.9.1 2.9l-1.4 12h-3.8v.1z" class="st0"/>
  </g>
</svg>