<?xml version="1.0" encoding="utf-8"?>
<!-- Generator: Adobe Illustrator 24.3.0, SVG Export Plug-In . SVG Version: 6.00 Build 0)  -->
<svg version="1.1" id="Layer_1" xmlns="http://www.w3.org/2000/svg" xmlns:xlink="http://www.w3.org/1999/xlink" x="0px" y="0px"
	 viewBox="0 0 434.1 234.5" style="enable-background:new 0 0 434.1 234.5;" xml:space="preserve">
<style type="text/css">
	.st0{fill:#FFFFFF;}
</style>
<g>
	<g>
		<path class="st0" d="M200,47.2v40.6c0,4,6.7,4.1,6.7,4.1h7.7c10.1,0,16.9-3.4,16.9-11.6v-1.6c0-4.1-2.3-8-5.5-9.4
			c2.8-1.3,4.9-5.2,4.9-9.1v-1.6c0-8.6-6.8-11.4-16.3-11.4H200z M208.4,53.4h6.1c5.4,0,7.9,1.2,7.9,5.8c0,4.6-1.9,7-7.4,7h-6.6V53.4
			z M208.4,72.4h6.6c5.6,0,8.1,2.4,8.1,6.9c0,4.6-2.6,6.4-8.6,6.4h-6.1V72.4z"/>
		<path class="st0" d="M200,47.2v40.6c0,4,6.7,4.1,6.7,4.1h7.7c10.1,0,16.9-3.4,16.9-11.6v-1.6c0-4.1-2.3-8-5.5-9.4
			c2.8-1.3,4.9-5.2,4.9-9.1v-1.6c0-8.6-6.8-11.4-16.3-11.4H200z M208.4,53.4h6.1c5.4,0,7.9,1.2,7.9,5.8c0,4.6-1.9,7-7.4,7h-6.6V53.4
			z M208.4,72.4h6.6c5.6,0,8.1,2.4,8.1,6.9c0,4.6-2.6,6.4-8.6,6.4h-6.1V72.4z"/>
		<path class="st0" d="M200,47.2v40.6c0,4,6.7,4.1,6.7,4.1h7.7c10.1,0,16.9-3.4,16.9-11.6v-1.6c0-4.1-2.3-8-5.5-9.4
			c2.8-1.3,4.9-5.2,4.9-9.1v-1.6c0-8.6-6.8-11.4-16.3-11.4H200z M208.4,53.4h6.1c5.4,0,7.9,1.2,7.9,5.8c0,4.6-1.9,7-7.4,7h-6.6V53.4
			z M208.4,72.4h6.6c5.6,0,8.1,2.4,8.1,6.9c0,4.6-2.6,6.4-8.6,6.4h-6.1V72.4z"/>
		<path class="st0" d="M238.4,47.7v5.2c0,0.9,1,1.8,2.3,1.8h5.5v-5.1c0-0.9-1.3-1.8-2.3-1.8h-5.5V47.7z M238.2,88.3
			c0,4,8,4.1,8.1,4.1V63.3c-0.1-3.9-7.6-4-8.1-4V88.3z"/>
		<path class="st0" d="M238.4,47.7v5.2c0,0.9,1,1.8,2.3,1.8h5.5v-5.1c0-0.9-1.3-1.8-2.3-1.8h-5.5V47.7z M238.2,88.3
			c0,4,8,4.1,8.1,4.1V63.3c-0.1-3.9-7.6-4-8.1-4V88.3z"/>
		<path class="st0" d="M238.4,47.7v5.2c0,0.9,1,1.8,2.3,1.8h5.5v-5.1c0-0.9-1.3-1.8-2.3-1.8h-5.5V47.7z M238.2,88.3
			c0,4,8,4.1,8.1,4.1V63.3c-0.1-3.9-7.6-4-8.1-4V88.3z"/>
		<path class="st0" d="M259.5,60.3c-3.2,0-5.6-1.3-5.6-1.3v29.3c0,4.1,8.1,4.1,8.1,4.1V65.9c0,0,2.7-0.9,5.9-0.9c4.4,0,6,1.9,6,5.2
			v18.1c0,3.9,8.1,4.1,8.1,4.1V69.3c0-8.1-6.8-10.3-13.2-10.3C265.4,59,262.5,60.3,259.5,60.3"/>
		<path class="st0" d="M259.5,60.3c-3.2,0-5.6-1.3-5.6-1.3v29.3c0,4.1,8.1,4.1,8.1,4.1V65.9c0,0,2.7-0.9,5.9-0.9c4.4,0,6,1.9,6,5.2
			v18.1c0,3.9,8.1,4.1,8.1,4.1V69.3c0-8.1-6.8-10.3-13.2-10.3C265.4,59,262.5,60.3,259.5,60.3"/>
		<path class="st0" d="M259.5,60.3c-3.2,0-5.6-1.3-5.6-1.3v29.3c0,4.1,8.1,4.1,8.1,4.1V65.9c0,0,2.7-0.9,5.9-0.9c4.4,0,6,1.9,6,5.2
			v18.1c0,3.9,8.1,4.1,8.1,4.1V69.3c0-8.1-6.8-10.3-13.2-10.3C265.4,59,262.5,60.3,259.5,60.3"/>
		<path class="st0" d="M295.2,60.3c-3.2,0-5.6-1.3-5.6-1.3v29.3c0,4.1,8.1,4.1,8.1,4.1V65.9c0,0,2.8-0.9,5.9-0.9c4.4,0,6,1.9,6,5.2
			v18.1c0,3.9,8.1,4.1,8.1,4.1V69.3c0-8.1-6.8-10.3-13.2-10.3C301.1,59,298.2,60.3,295.2,60.3"/>
		<path class="st0" d="M295.2,60.3c-3.2,0-5.6-1.3-5.6-1.3v29.3c0,4.1,8.1,4.1,8.1,4.1V65.9c0,0,2.8-0.9,5.9-0.9c4.4,0,6,1.9,6,5.2
			v18.1c0,3.9,8.1,4.1,8.1,4.1V69.3c0-8.1-6.8-10.3-13.2-10.3C301.1,59,298.2,60.3,295.2,60.3"/>
		<path class="st0" d="M295.2,60.3c-3.2,0-5.6-1.3-5.6-1.3v29.3c0,4.1,8.1,4.1,8.1,4.1V65.9c0,0,2.8-0.9,5.9-0.9c4.4,0,6,1.9,6,5.2
			v18.1c0,3.9,8.1,4.1,8.1,4.1V69.3c0-8.1-6.8-10.3-13.2-10.3C301.1,59,298.2,60.3,295.2,60.3"/>
		<path class="st0" d="M325,66.1c0,1.7,0.6,3.6,2.4,6.1c0-5.2,4.7-7.1,10-7.1c4.8,0,6.1,2,6.1,4.2c-2.6,4.9-19.3,1.9-19.3,13.6
			c0,7.4,6.3,9.8,12.7,9.8c3.6,0,6.7-1.1,9.8-1.1c1.6,0,3.2,0.2,4.8,1V69.7c0-6.8-4.9-10.7-14.1-10.7C332.3,59,325,60.6,325,66.1
			 M332.2,82.7c0-5.6,10-3.7,11.4-7.1v10.2c0,0-2.5,1.1-5.8,1.1C334.2,87,332.2,85.6,332.2,82.7"/>
		<path class="st0" d="M325,66.1c0,1.7,0.6,3.6,2.4,6.1c0-5.2,4.7-7.1,10-7.1c4.8,0,6.1,2,6.1,4.2c-2.6,4.9-19.3,1.9-19.3,13.6
			c0,7.4,6.3,9.8,12.7,9.8c3.6,0,6.7-1.1,9.8-1.1c1.6,0,3.2,0.2,4.8,1V69.7c0-6.8-4.9-10.7-14.1-10.7C332.3,59,325,60.6,325,66.1
			 M332.2,82.7c0-5.6,10-3.7,11.4-7.1v10.2c0,0-2.5,1.1-5.8,1.1C334.2,87,332.2,85.6,332.2,82.7"/>
		<path class="st0" d="M325,66.1c0,1.7,0.6,3.6,2.4,6.1c0-5.2,4.7-7.1,10-7.1c4.8,0,6.1,2,6.1,4.2c-2.6,4.9-19.3,1.9-19.3,13.6
			c0,7.4,6.3,9.8,12.7,9.8c3.6,0,6.7-1.1,9.8-1.1c1.6,0,3.2,0.2,4.8,1V69.7c0-6.8-4.9-10.7-14.1-10.7C332.3,59,325,60.6,325,66.1
			 M332.2,82.7c0-5.6,10-3.7,11.4-7.1v10.2c0,0-2.5,1.1-5.8,1.1C334.2,87,332.2,85.6,332.2,82.7"/>
		<path class="st0" d="M358,70v11.7c0,6.9,5.6,11,14.4,11c7.1,0,12.4-2.9,12.4-7.4c0-1.5-0.6-3.2-1.9-5.1c-0.1,3.7-4.1,6.4-9.5,6.4
			c-5,0-7.3-1.9-7.3-6.4v-8.6c0-5.2,3-6.5,7.5-6.5c3.9,0,8,2.2,8,7.3c1.7-2.4,2.4-4.5,2.4-6.2c0-5.5-7-7.2-11.9-7.2
			C363.2,59,358,63.2,358,70"/>
		<path class="st0" d="M358,70v11.7c0,6.9,5.6,11,14.4,11c7.1,0,12.4-2.9,12.4-7.4c0-1.5-0.6-3.2-1.9-5.1c-0.1,3.7-4.1,6.4-9.5,6.4
			c-5,0-7.3-1.9-7.3-6.4v-8.6c0-5.2,3-6.5,7.5-6.5c3.9,0,8,2.2,8,7.3c1.7-2.4,2.4-4.5,2.4-6.2c0-5.5-7-7.2-11.9-7.2
			C363.2,59,358,63.2,358,70"/>
		<path class="st0" d="M358,70v11.7c0,6.9,5.6,11,14.4,11c7.1,0,12.4-2.9,12.4-7.4c0-1.5-0.6-3.2-1.9-5.1c-0.1,3.7-4.1,6.4-9.5,6.4
			c-5,0-7.3-1.9-7.3-6.4v-8.6c0-5.2,3-6.5,7.5-6.5c3.9,0,8,2.2,8,7.3c1.7-2.4,2.4-4.5,2.4-6.2c0-5.5-7-7.2-11.9-7.2
			C363.2,59,358,63.2,358,70"/>
		<path class="st0" d="M390.1,82.6c0,5.2,2.3,9.8,7.4,9.8c1.6,0,3.5-0.3,5.2-2.5c-4.4,0-4.4-5.9-4.4-9.3V48.2c0-4-7.6-4.1-8.1-4.1
			v38.5H390.1z"/>
		<path class="st0" d="M390.1,82.6c0,5.2,2.3,9.8,7.4,9.8c1.6,0,3.5-0.3,5.2-2.5c-4.4,0-4.4-5.9-4.4-9.3V48.2c0-4-7.6-4.1-8.1-4.1
			v38.5H390.1z"/>
		<path class="st0" d="M390.1,82.6c0,5.2,2.3,9.8,7.4,9.8c1.6,0,3.5-0.3,5.2-2.5c-4.4,0-4.4-5.9-4.4-9.3V48.2c0-4-7.6-4.1-8.1-4.1
			v38.5H390.1z"/>
		<path class="st0" d="M405.4,70v11.7c0,6.9,5.6,11,15.1,11c7.2,0,12.4-3,12.4-7.5c0-1.6-0.6-3.3-1.9-5.1c-0.1,3.7-4.2,6.4-10.4,6.4
			c-4.7,0-6.9-1.9-6.9-5.7v-2.2c1.9,0.7,3.9,1.1,5.9,1.1c9.9,0,13-4.9,13-10.2c0-6.3-4.2-10.4-13.2-10.4
			C410.3,59,405.4,63.1,405.4,70 M413.6,72.7v-1.8c0-3.8,1.2-6,5.4-6c3.9,0,5.3,1.8,5.3,4.4c0,2.5-1.6,3.9-6.1,3.9
			C416.4,73.3,414.2,72.9,413.6,72.7"/>
		<path class="st0" d="M405.4,70v11.7c0,6.9,5.6,11,15.1,11c7.2,0,12.4-3,12.4-7.5c0-1.6-0.6-3.3-1.9-5.1c-0.1,3.7-4.2,6.4-10.4,6.4
			c-4.7,0-6.9-1.9-6.9-5.7v-2.2c1.9,0.7,3.9,1.1,5.9,1.1c9.9,0,13-4.9,13-10.2c0-6.3-4.2-10.4-13.2-10.4
			C410.3,59,405.4,63.1,405.4,70 M413.6,72.7v-1.8c0-3.8,1.2-6,5.4-6c3.9,0,5.3,1.8,5.3,4.4c0,2.5-1.6,3.9-6.1,3.9
			C416.4,73.3,414.2,72.9,413.6,72.7"/>
		<path class="st0" d="M405.4,70v11.7c0,6.9,5.6,11,15.1,11c7.2,0,12.4-3,12.4-7.5c0-1.6-0.6-3.3-1.9-5.1c-0.1,3.7-4.2,6.4-10.4,6.4
			c-4.7,0-6.9-1.9-6.9-5.7v-2.2c1.9,0.7,3.9,1.1,5.9,1.1c9.9,0,13-4.9,13-10.2c0-6.3-4.2-10.4-13.2-10.4
			C410.3,59,405.4,63.1,405.4,70 M413.6,72.7v-1.8c0-3.8,1.2-6,5.4-6c3.9,0,5.3,1.8,5.3,4.4c0,2.5-1.6,3.9-6.1,3.9
			C416.4,73.3,414.2,72.9,413.6,72.7"/>
		<path class="st0" d="M311.1,106v24.6c0,0-4.2,0-4.2-2.2v-22.3h-5.5c-2.8,0-3.2-2.3-3.2-3.9c0,0,1,0.6,3.8,0.6h14
			c2.8,0,3.8-0.6,3.8-0.6c0,1.6-0.4,3.9-3.2,3.9L311.1,106L311.1,106z"/>
		<path class="st0" d="M323.4,113.9v16.5c0,0-4.1,0-4.1-2.2v-18c1,0.5,1.9,0.7,2.7,0.7c1.7,0,3.2-0.8,5.4-0.8c2.7,0,4.9,1,4.9,3.4
			c0,1.4-0.9,2.6-1.4,3.3c0-2.3-1.9-3.3-4.1-3.3C325,113.4,323.4,113.9,323.4,113.9"/>
		<path class="st0" d="M345.4,116.3c0-1.7-0.8-3-4.1-3c-3.5,0-6.1,1.3-6.1,4.3c-0.9-1.3-1.3-2.4-1.3-3.3c0-3,4-4.2,7.4-4.2
			c5.3,0,8.2,2.4,8.2,6.4v14c-1-0.4-1.9-0.5-2.8-0.5c-1.9,0-3.6,0.7-5.8,0.7c-3.8,0-7.5-1.5-7.5-5.9
			C333.3,117.4,343.9,119.7,345.4,116.3 M345.5,119.8c-0.8,2.3-8.1,0.9-8.1,5c0,1.7,1.3,2.9,4.1,2.9c2.4,0,4.1-0.9,4.1-0.9v-7H345.5
			z"/>
		<path class="st0" d="M354.3,103.1h2.9c0.5,0,1.1,0.5,1.1,1v2.9h-2.9c-0.6,0-1.2-0.4-1.2-0.9v-3H354.3z M354.3,110.2
			c0.2,0,4.1,0,4.1,2.2v18c0,0-4.1,0-4.1-2.2V110.2z"/>
		<path class="st0" d="M375.8,116.7c0-2.2-1.1-3.5-4.2-3.5c-2.4,0-4.1,0.7-4.1,0.7v16.6c0,0-4.1,0-4.1-2.2v-18.1
			c0.4,0.2,1.6,0.7,3,0.7c1.9,0,3.6-0.8,5.8-0.8c3.8,0,7.8,1.3,7.8,6.1v14.3c0,0-4.1-0.1-4.1-2.2L375.8,116.7L375.8,116.7z"/>
		<path class="st0" d="M384.9,103.1h2.9c0.5,0,1.1,0.5,1.1,1v2.9H386c-0.6,0-1.2-0.4-1.2-0.9v-3H384.9z M384.9,110.2
			c0.2,0,4.1,0,4.1,2.2v18c0,0-4.1,0-4.1-2.2V110.2z"/>
		<path class="st0" d="M406.5,116.7c0-2.2-1.1-3.5-4.2-3.5c-2.4,0-4.1,0.7-4.1,0.7v16.6c0,0-4.1,0-4.1-2.2v-18.1
			c0.4,0.2,1.6,0.7,3,0.7c1.9,0,3.6-0.8,5.8-0.8c3.8,0,7.8,1.3,7.8,6.1v14.3c0,0-4.1-0.1-4.1-2.2L406.5,116.7L406.5,116.7z"/>
		<path class="st0" d="M431.2,118.1c0,4.1-2.8,6.6-8.1,6.6c-3.2,0-5-1.1-5-1.1c-0.1,0.6-0.3,1.3-0.3,1.8c0,1.9,1.6,2.2,4.6,2.2h1.3
			c3.9,0,8.2,0.1,8.2,5.3c0,4-2.8,6.7-8.8,6.7c-4.8,0-8.2-1.5-8.2-4.2c0-0.9,0.4-1.9,1.2-3c0.2,2.9,3,4.1,6.8,4.1s5-1.5,5-3.5
			c0-2.1-1.7-2.4-4.3-2.4h-1.9c-3.7,0-7.2-0.4-7.2-4.4c0-1.5,0.8-2.7,1.9-4c-0.9-1-1.4-2.7-1.4-4.2v-2c0-4.4,3.6-6,7.3-6
			c2.1,0,4,0.8,5.8,0.8c0.9,0,1.9-0.2,3-0.7v8H431.2z M427.2,113.9c-0.2-0.1-1.8-0.8-4.1-0.8c-3.1,0-4,1-4,3.6v0.9c0,2.6,0.8,4,4,4
			s4-1.5,4-4v-3.7H427.2z"/>
		<path class="st0" d="M35.3,41.6C25,53.3,18.7,68.6,18.5,85.2H18l0.5,0.1c0,0.3,0,0.6,0,0.9c0,16.7,6.1,31.9,16.1,43.7L0,170
			l41.8-32.9c11.7,10.2,26.8,16.5,43.5,16.8v0.4v-0.4c0.3,0,0.7,0.1,1,0.1c16.7,0,31.9-6.1,43.7-16.1l40.3,34.6l-33.1-41.7
			c10.2-11.7,16.5-26.9,16.8-43.6h0.4H154c0-0.3,0-0.6,0-0.8c0-16.6-6.1-31.9-16.1-43.7l34.6-40.3l-41.7,33.1
			c-11.7-10.3-26.9-16.6-43.7-16.8v-0.5L87,18.7c-0.3,0-0.5,0-0.8,0c-16.6,0-31.9,6.1-43.7,16.1L2.3,0L35.3,41.6z M38.4,45.6
			l28.6,36l-43.5,3.3C23.8,69.9,29.3,56.2,38.4,45.6 M23.4,85.9l44.7,5.2l0,0l-30.3,35.1c-9-10.9-14.4-24.8-14.4-40
			C23.4,86.1,23.4,86,23.4,85.9 M45.6,134l7.3-5.7l28.7-22.7l3.2,43.3C69.8,148.6,56.2,143,45.6,134 M85.8,148.9l5.3-44.5l0,0
			l29.5,25.4l5.5,4.8c-10.9,9-24.8,14.4-39.9,14.4C86,149,85.9,148.9,85.8,148.9 M133.9,126.8l-13.1-16.5l-6-7.5l-9.5-12l0,0
			l43.4-3.3C148.5,102.5,143,116.1,133.9,126.8 M148.9,86.5l-44.4-5.1l30.1-35c9,10.9,14.3,24.8,14.3,39.9
			C148.9,86.3,148.9,86.4,148.9,86.5 M126.8,38.5l-36,28.6l0,0l-3.3-43.5C102.4,23.8,116.1,29.4,126.8,38.5 M86.4,23.5l-5.1,44.4
			l-35-30.1c10.9-9,24.8-14.3,39.9-14.3C86.2,23.5,86.3,23.5,86.4,23.5"/>
	</g>
	<g>
		<g>
			<path class="st0" d="M19.5,226.6l-1.2-5.3H7.8l-2.4,5.3H1.1l12.7-26.5H17l6.7,26.5H19.5z M14.9,206.1l-5.5,11.7h8.1L14.9,206.1z"
				/>
			<path class="st0" d="M31.8,226.6c-0.9,0-1.6-0.1-2.3-0.4c-0.6-0.3-1.1-0.7-1.5-1.1c-0.4-0.5-0.6-1-0.7-1.7s-0.1-1.3-0.1-2
				l2.4-21.3h3.8l-2.4,21c-0.1,0.7,0,1.3,0.3,1.6c0.3,0.4,0.8,0.6,1.5,0.6h1.7l-0.4,3.2L31.8,226.6L31.8,226.6z"/>
			<path class="st0" d="M43,226.6c-0.9,0-1.6-0.1-2.3-0.4c-0.6-0.3-1.1-0.7-1.5-1.1c-0.4-0.5-0.6-1-0.7-1.7c-0.1-0.6-0.1-1.3-0.1-2
				l2.4-21.3h3.8l-2.4,21c-0.1,0.7,0,1.3,0.3,1.6c0.3,0.4,0.8,0.6,1.5,0.6h1.7l-0.4,3.2L43,226.6L43,226.6z"/>
			<path class="st0" d="M65.1,217.1c-0.2,1.6-0.5,3-0.9,4.2s-1.2,2.3-2.2,3.3c-0.7,0.6-1.5,1.2-2.5,1.6c-1,0.4-2.1,0.6-3.4,0.6
				s-2.4-0.2-3.2-0.6c-0.9-0.4-1.6-1-2.1-1.6c-0.8-0.9-1.3-2-1.4-3.2c-0.2-1.2-0.1-2.6,0-4.2c0.2-1.6,0.5-3,0.9-4.2s1.2-2.3,2.2-3.2
				c0.7-0.6,1.5-1.2,2.5-1.6c1-0.4,2.1-0.6,3.4-0.6s2.4,0.2,3.3,0.6c0.9,0.4,1.6,1,2.1,1.6c0.8,0.9,1.3,2,1.4,3.2
				S65.3,215.5,65.1,217.1z M61.3,217.1c0.1-1,0.2-2,0.1-2.9c0-0.9-0.3-1.7-0.8-2.2c-0.6-0.7-1.5-1.1-2.7-1.1
				c-1.1,0-2.1,0.4-2.9,1.1c-0.6,0.6-1.1,1.3-1.3,2.2c-0.3,0.9-0.4,1.9-0.6,2.9c-0.1,1-0.2,2-0.1,2.9c0,0.9,0.3,1.7,0.8,2.2
				c0.7,0.7,1.5,1.1,2.6,1.1s2.1-0.4,2.9-1.1c0.6-0.6,1.1-1.3,1.3-2.2C61,219.2,61.2,218.2,61.3,217.1z"/>
			<path class="st0" d="M87.2,226.6H84l-2.9-13.2l-5.9,13.2h-3.3l-3.7-18.8h4l2.1,13.3l5.9-13.3h2.9l2.8,13.3l5.2-13.3h4L87.2,226.6
				z"/>
			<path class="st0" d="M96.1,226.6l2.2-18.8h3.8l-2.2,18.8H96.1z M98.5,204l0.5-4h4l-0.5,4H98.5z"/>
			<path class="st0" d="M117,226.6l1.3-11.5c0.2-1.5-0.1-2.5-0.7-3.2c-0.7-0.7-1.5-1-2.6-1s-2,0.3-2.9,1c-0.8,0.7-1.4,1.7-1.5,3.2
				l-1.3,11.5h-3.8l2.2-18.8h3.7l-0.2,1.9c0.7-0.7,1.5-1.3,2.5-1.6c0.9-0.3,1.8-0.5,2.8-0.5s1.8,0.1,2.6,0.4
				c0.7,0.3,1.4,0.7,1.9,1.3c0.6,0.7,1,1.5,1.2,2.4s0.2,1.9,0.1,2.9l-1.4,12L117,226.6L117,226.6z"/>
			<path class="st0" d="M140.7,226.5c-0.1,1.2-0.4,2.2-0.9,3.2s-1.1,1.8-1.9,2.5c-0.8,0.7-1.7,1.3-2.7,1.7s-2.2,0.6-3.4,0.6
				c-1.4,0-2.6-0.2-3.6-0.6c-1-0.4-1.9-1-2.8-1.9l2.7-2.4c0.5,0.6,1.1,1,1.6,1.3c0.6,0.3,1.3,0.4,2.3,0.4c0.8,0,1.5-0.1,2.1-0.4
				c0.6-0.3,1.1-0.6,1.5-1.1c0.4-0.4,0.7-1,1-1.5c0.2-0.6,0.4-1.2,0.5-1.8l0.3-2.4c-0.8,0.8-1.6,1.4-2.4,1.7
				c-0.8,0.3-1.7,0.5-2.7,0.5c-0.9,0-1.8-0.1-2.5-0.4c-0.7-0.3-1.3-0.7-1.8-1.2c-0.8-0.9-1.3-2-1.4-3.3c-0.1-1.3-0.1-2.7,0.1-4.3
				c0.2-1.6,0.5-3.1,0.9-4.3c0.4-1.3,1.1-2.4,2.1-3.3c1.2-1.1,2.8-1.6,4.7-1.6c1,0,1.9,0.2,2.6,0.5c0.7,0.3,1.4,0.9,2,1.8l0.2-2h3.7
				L140.7,226.5z M138,216.8c0.1-0.7,0.1-1.5,0.1-2.2s-0.1-1.3-0.3-1.9c-0.2-0.6-0.5-1-1-1.3s-1.1-0.5-2-0.5s-1.6,0.2-2.1,0.5
				s-1,0.8-1.3,1.3c-0.3,0.6-0.6,1.2-0.7,1.9c-0.2,0.7-0.3,1.4-0.4,2.2c-0.1,0.7-0.1,1.5-0.1,2.2s0.1,1.3,0.3,1.9
				c0.2,0.6,0.5,1,1,1.3s1.1,0.5,2,0.5c0.8,0,1.5-0.2,2.1-0.5c0.5-0.3,1-0.8,1.3-1.3c0.3-0.6,0.6-1.2,0.7-1.9
				C137.8,218.3,137.9,217.5,138,216.8z"/>
			<path class="st0" d="M160.6,226.6c-0.9,0-1.6-0.1-2.3-0.4c-0.6-0.3-1.1-0.7-1.5-1.2s-0.6-1-0.8-1.7c-0.1-0.6-0.2-1.3-0.1-2
				l1.2-10.7h-2.2l0.3-2.9h2.2l0.6-5.4h3.8l-0.6,5.4h3.6l-0.3,2.9H161l-1.2,10.5c-0.1,0.7,0,1.2,0.3,1.6c0.3,0.4,0.8,0.6,1.5,0.6
				h1.6l-0.4,3.2L160.6,226.6L160.6,226.6z"/>
			<path class="st0" d="M171.8,218.2c-0.2,1.6,0.1,2.9,0.8,3.9c0.7,0.9,1.8,1.4,3.4,1.4c1.1,0,1.9-0.2,2.6-0.5
				c0.7-0.3,1.4-0.8,2.2-1.5l2.2,2.3c-0.6,0.5-1.1,0.9-1.6,1.3c-0.5,0.4-1.1,0.7-1.7,0.9c-0.6,0.2-1.2,0.4-1.9,0.6
				c-0.7,0.1-1.4,0.2-2.2,0.2c-1.2,0-2.3-0.2-3.3-0.5s-1.8-0.9-2.5-1.6c-0.7-0.8-1.2-1.8-1.5-3s-0.4-2.7-0.1-4.5
				c0.4-3.1,1.4-5.5,3-7.1c1.6-1.7,3.7-2.5,6.1-2.5c1.3,0,2.4,0.2,3.3,0.7c0.9,0.4,1.7,1.1,2.3,1.9c0.6,0.8,1,1.8,1.2,2.9
				c0.2,1.1,0.3,2.4,0.1,3.7l-0.2,1.6h-12.2V218.2z M180.6,215.6c0-0.6,0-1,0-1.4s-0.1-0.7-0.2-1.2c-0.2-0.7-0.7-1.3-1.2-1.7
				c-0.6-0.4-1.3-0.7-2.2-0.7s-1.7,0.2-2.4,0.7c-0.7,0.4-1.2,1-1.6,1.7c-0.2,0.4-0.4,0.8-0.5,1.2s-0.2,0.8-0.3,1.4H180.6z"/>
			<path class="st0" d="M197.9,226.6l0.2-1.7c-0.8,0.7-1.5,1.2-2.3,1.5s-1.7,0.4-2.9,0.4s-2.2-0.1-2.9-0.4c-0.8-0.3-1.4-0.7-1.9-1.3
				c-0.9-1-1.2-2.4-1-4s0.9-2.9,2.1-3.9s2.9-1.5,5.1-1.5h4.9l0.2-1.3c0.1-1.2-0.1-2.1-0.6-2.7c-0.6-0.6-1.6-0.9-3.1-0.9
				c-1,0-1.8,0.1-2.5,0.4c-0.6,0.3-1.3,0.8-1.9,1.4l-2.2-2.3c0.5-0.5,1-1,1.5-1.3s1-0.6,1.6-0.9c0.6-0.2,1.2-0.4,1.8-0.5
				s1.4-0.1,2.2-0.1c2.6,0,4.5,0.5,5.7,1.6s1.6,2.7,1.4,4.8l-1.4,12.6L197.9,226.6L197.9,226.6z M198.8,218.2h-4.3
				c-2.3,0-3.6,0.9-3.8,2.7c-0.1,0.9,0.1,1.5,0.6,2s1.4,0.7,2.7,0.7c0.7,0,1.3-0.1,1.9-0.2c0.6-0.1,1.1-0.4,1.7-0.9
				c0.6-0.5,1-1.4,1.1-2.8L198.8,218.2z"/>
			<path class="st0" d="M221,224.1c-1,0.9-2,1.6-3,2s-2.2,0.6-3.5,0.6c-1.1,0-2.1-0.2-3-0.5c-1-0.3-1.8-0.9-2.5-1.7s-1.2-1.8-1.6-3
				c-0.3-1.2-0.4-2.7-0.2-4.5s0.6-3.2,1.2-4.5c0.6-1.2,1.4-2.2,2.2-3c0.9-0.8,1.8-1.3,2.9-1.7c1-0.3,2.1-0.5,3.2-0.5
				c1.3,0,2.4,0.2,3.3,0.6c0.9,0.4,1.8,1.1,2.6,2l-2.9,2.5c-0.5-0.6-1-1.1-1.5-1.4c-0.5-0.3-1.1-0.4-1.9-0.4c-1.5,0-2.7,0.6-3.7,1.7
				c-0.5,0.5-0.8,1.1-1.1,1.8c-0.2,0.7-0.4,1.6-0.6,2.7c-0.1,1.1-0.2,2-0.1,2.8c0.1,0.7,0.3,1.3,0.7,1.9c0.7,1.1,1.8,1.7,3.3,1.7
				c0.7,0,1.4-0.1,2-0.4c0.6-0.3,1.2-0.7,1.8-1.4L221,224.1z"/>
			<path class="st0" d="M235.5,226.6l1.3-11.5c0.2-1.5-0.1-2.5-0.7-3.2c-0.7-0.7-1.5-1-2.6-1s-2,0.3-2.9,1c-0.8,0.7-1.4,1.7-1.5,3.2
				l-1.3,11.5H224l3-26.5h3.8l-1.1,9.5c0.7-0.7,1.5-1.3,2.4-1.6c0.9-0.3,1.8-0.5,2.8-0.5s1.8,0.1,2.6,0.4c0.7,0.3,1.4,0.7,1.9,1.3
				c0.6,0.7,1,1.5,1.2,2.4s0.2,1.9,0.1,2.9l-1.4,12h-3.8V226.6z"/>
			<path class="st0" d="M248.5,218.2c-0.2,1.6,0.1,2.9,0.8,3.9c0.7,0.9,1.8,1.4,3.4,1.4c1.1,0,1.9-0.2,2.6-0.5s1.4-0.8,2.2-1.5
				l2.2,2.3c-0.6,0.5-1.1,0.9-1.6,1.3c-0.5,0.4-1.1,0.7-1.7,0.9s-1.2,0.4-1.9,0.6c-0.7,0.1-1.4,0.2-2.2,0.2c-1.2,0-2.3-0.2-3.3-0.5
				s-1.8-0.9-2.5-1.6c-0.7-0.8-1.2-1.8-1.5-3s-0.4-2.7-0.1-4.5c0.4-3.1,1.4-5.5,3-7.1c1.6-1.7,3.7-2.5,6.1-2.5
				c1.3,0,2.4,0.2,3.3,0.7c0.9,0.4,1.7,1.1,2.3,1.9c0.6,0.8,1,1.8,1.2,2.9c0.2,1.1,0.3,2.4,0.1,3.7l-0.2,1.6h-12.2V218.2z
				 M257.3,215.6c0-0.6,0-1,0-1.4s-0.1-0.7-0.2-1.2c-0.2-0.7-0.7-1.3-1.2-1.7c-0.6-0.4-1.3-0.7-2.2-0.7c-0.9,0-1.7,0.2-2.4,0.7
				c-0.7,0.4-1.2,1-1.6,1.7c-0.2,0.4-0.4,0.8-0.5,1.2s-0.2,0.8-0.3,1.4H257.3z"/>
			<path class="st0" d="M275.7,212.2c-0.4-0.4-0.8-0.7-1.1-0.9c-0.4-0.2-0.9-0.3-1.5-0.3c-1,0-2,0.4-2.8,1.1
				c-0.8,0.8-1.3,1.8-1.5,3.1l-1.3,11.4h-3.8l2.2-18.8h3.7l-0.2,2c0.6-0.7,1.3-1.2,2.3-1.6c0.9-0.4,1.9-0.6,3-0.6
				c0.9,0,1.7,0.1,2.4,0.4c0.7,0.3,1.3,0.7,1.9,1.4L275.7,212.2z"/>
			<path class="st0" d="M294.6,220.8c-0.1,1-0.4,1.9-0.9,2.6c-0.5,0.7-1.1,1.4-1.9,1.9s-1.6,0.9-2.6,1.1c-1,0.2-2,0.4-3.2,0.4
				c-1.5,0-2.9-0.2-4.2-0.5c-1.3-0.4-2.4-1.1-3.4-2.2l2.8-2.5c0.7,0.8,1.5,1.3,2.4,1.6s1.9,0.4,2.8,0.4c1.2,0,2.2-0.2,3-0.6
				c0.8-0.4,1.3-1.1,1.4-2c0.1-0.6-0.1-1.2-0.4-1.5c-0.3-0.4-1-0.6-1.9-0.7l-3-0.3c-1.8-0.2-3.1-0.7-4-1.5s-1.2-2.1-1-3.7
				c0.1-0.9,0.4-1.7,0.8-2.5c0.5-0.7,1-1.3,1.7-1.8s1.5-0.9,2.4-1.1c0.9-0.2,1.8-0.4,2.8-0.4c1.4,0,2.7,0.2,3.9,0.5
				c1.1,0.3,2.1,0.9,2.9,1.6l-2.7,2.4c-0.5-0.5-1.2-0.8-2-1.1c-0.8-0.2-1.6-0.3-2.5-0.3c-1.2,0-2.1,0.2-2.7,0.7s-1,1-1,1.7
				c-0.1,0.6,0.1,1.1,0.4,1.5c0.4,0.3,1,0.6,1.9,0.7l2.6,0.2c1.9,0.2,3.4,0.7,4.3,1.6C294.5,217.9,294.8,219.2,294.6,220.8z"/>
			<path class="st0" d="M313.8,226.6c-0.9,0-1.6-0.1-2.3-0.4c-0.6-0.3-1.1-0.7-1.5-1.2s-0.6-1-0.8-1.7c-0.1-0.6-0.2-1.3-0.1-2
				l1.2-10.7h-2.2l0.3-2.9h2.2l0.6-5.4h3.8l-0.6,5.4h3.6l-0.3,2.9h-3.6l-1.2,10.5c-0.1,0.7,0,1.2,0.3,1.6c0.3,0.4,0.8,0.6,1.5,0.6
				h1.6l-0.4,3.2L313.8,226.6L313.8,226.6z"/>
			<path class="st0" d="M336.1,217.1c-0.2,1.6-0.5,3-0.9,4.2s-1.2,2.3-2.2,3.2c-0.7,0.6-1.5,1.2-2.5,1.6c-1,0.4-2.1,0.6-3.4,0.6
				s-2.4-0.2-3.2-0.6c-0.9-0.4-1.6-1-2.1-1.6c-0.8-0.9-1.3-2-1.4-3.2c-0.2-1.2-0.1-2.6,0-4.2c0.2-1.6,0.5-3,0.9-4.2s1.2-2.3,2.2-3.2
				c0.7-0.6,1.5-1.2,2.5-1.6c1-0.4,2.1-0.6,3.4-0.6s2.4,0.2,3.3,0.6c0.9,0.4,1.6,1,2.1,1.6c0.8,0.9,1.3,2,1.4,3.2
				C336.3,214.2,336.3,215.5,336.1,217.1z M332.3,217.1c0.1-1,0.2-2,0.1-2.9c0-0.9-0.3-1.7-0.8-2.2c-0.6-0.7-1.5-1.1-2.7-1.1
				c-1.1,0-2.1,0.4-2.9,1.1c-0.6,0.6-1.1,1.3-1.3,2.2c-0.3,0.9-0.4,1.9-0.6,2.9c-0.1,1-0.2,2-0.1,2.9c0,0.9,0.3,1.7,0.8,2.2
				c0.7,0.7,1.5,1.1,2.6,1.1s2.1-0.4,2.9-1.1c0.6-0.6,1.1-1.3,1.3-2.2C332,219.2,332.2,218.2,332.3,217.1z"/>
			<path class="st0" d="M353.9,226.6c-0.9,0-1.6-0.1-2.3-0.4c-0.6-0.3-1.1-0.7-1.5-1.2s-0.6-1-0.8-1.7c-0.1-0.6-0.2-1.3-0.1-2
				l1.2-10.7h-2.2l0.3-2.9h2.2l0.6-5.4h3.8l-0.6,5.4h3.6l-0.1,2.9h-3.6l-1.2,10.5c-0.1,0.7,0,1.2,0.3,1.6c0.3,0.4,0.8,0.6,1.5,0.6
				h1.6l-0.4,3.2L353.9,226.6L353.9,226.6z"/>
			<path class="st0" d="M364.8,218.2c-0.2,1.6,0.1,2.9,0.8,3.9c0.7,0.9,1.8,1.4,3.4,1.4c1.1,0,1.9-0.2,2.6-0.5s1.4-0.8,2.2-1.5
				l2.2,2.3c-0.6,0.5-1.1,0.9-1.6,1.3c-0.5,0.4-1.1,0.7-1.7,0.9s-1.2,0.4-1.9,0.6c-0.7,0.1-1.4,0.2-2.2,0.2c-1.2,0-2.3-0.2-3.3-0.5
				s-1.8-0.9-2.5-1.6c-0.7-0.8-1.2-1.8-1.5-3s-0.4-2.7-0.1-4.5c0.4-3.1,1.4-5.5,3-7.1c1.6-1.7,3.7-2.5,6.1-2.5
				c1.3,0,2.4,0.2,3.3,0.7c0.9,0.4,1.7,1.1,2.3,1.9c0.6,0.8,1,1.8,1.2,2.9c0.2,1.1,0.3,2.4,0.1,3.7l-0.2,1.6h-12.2V218.2z
				 M373.5,215.6c0-0.6,0-1,0-1.4s-0.1-0.7-0.2-1.2c-0.2-0.7-0.7-1.3-1.2-1.7c-0.6-0.4-1.3-0.7-2.2-0.7c-0.9,0-1.7,0.2-2.4,0.7
				c-0.7,0.4-1.2,1-1.6,1.7c-0.2,0.4-0.4,0.8-0.5,1.2s-0.2,0.8-0.3,1.4H373.5z"/>
			<path class="st0" d="M391.2,226.6l0.2-1.7c-0.8,0.7-1.5,1.2-2.3,1.5s-1.7,0.4-2.9,0.4c-1.2,0-2.2-0.1-2.9-0.4
				c-0.8-0.3-1.4-0.7-1.9-1.3c-0.9-1-1.2-2.4-1-4s0.9-2.9,2.1-3.9s2.9-1.5,5.1-1.5h4.9l0.2-1.3c0.1-1.2-0.1-2.1-0.6-2.7
				c-0.6-0.6-1.6-0.9-3.1-0.9c-1,0-1.8,0.1-2.5,0.4c-0.6,0.3-1.3,0.8-1.9,1.4l-2.2-2.3c0.5-0.5,1-1,1.5-1.3s1-0.6,1.6-0.9
				c0.6-0.2,1.2-0.4,1.8-0.5c0.6-0.1,1.4-0.1,2.2-0.1c2.6,0,4.5,0.5,5.7,1.6s1.6,2.7,1.4,4.8l-1.4,12.6L391.2,226.6L391.2,226.6z
				 M392.1,218.2h-4.3c-2.3,0-3.6,0.9-3.8,2.7c-0.1,0.9,0.1,1.5,0.6,2s1.4,0.7,2.7,0.7c0.7,0,1.3-0.1,1.9-0.2
				c0.6-0.1,1.1-0.4,1.7-0.9s1-1.4,1.1-2.8L392.1,218.2z"/>
			<path class="st0" d="M413.9,224.1c-1,0.9-2,1.6-3,2s-2.2,0.6-3.5,0.6c-1.1,0-2.1-0.2-3-0.5s-1.8-0.9-2.5-1.7s-1.2-1.8-1.6-3
				c-0.3-1.2-0.4-2.7-0.2-4.5c0.2-1.8,0.6-3.2,1.2-4.5c0.6-1.2,1.4-2.2,2.2-3c0.9-0.8,1.8-1.3,2.9-1.7c1-0.3,2.1-0.5,3.2-0.5
				c1.3,0,2.4,0.2,3.3,0.6c0.9,0.4,1.8,1.1,2.6,2l-2.9,2.5c-0.5-0.6-1-1.1-1.5-1.4c-0.5-0.3-1.1-0.4-1.9-0.4c-1.5,0-2.7,0.6-3.7,1.7
				c-0.5,0.5-0.8,1.1-1.1,1.8c-0.2,0.7-0.4,1.6-0.6,2.7c-0.1,1.1-0.2,2-0.1,2.8c0.1,0.7,0.3,1.3,0.7,1.9c0.7,1.1,1.8,1.7,3.3,1.7
				c0.7,0,1.4-0.1,2-0.4c0.6-0.3,1.2-0.7,1.8-1.4L413.9,224.1z"/>
			<path class="st0" d="M428.8,226.6l1.3-11.5c0.2-1.5-0.1-2.5-0.7-3.2c-0.7-0.7-1.5-1-2.6-1s-2,0.3-2.9,1c-0.8,0.7-1.4,1.7-1.5,3.2
				l-1.3,11.5h-3.8l3-26.5h3.8l-1.1,9.5c0.7-0.7,1.5-1.3,2.4-1.6s1.8-0.5,2.8-0.5s1.8,0.1,2.6,0.4c0.7,0.3,1.4,0.7,1.9,1.3
				c0.6,0.7,1,1.5,1.2,2.4s0.2,1.9,0.1,2.9l-1.4,12h-3.8V226.6z"/>
		</g>
	</g>
</g>
</svg>
